# xmcd
#
# Track frame offsets:
#	150
#	10135
#	21211
#	32908
#	46942
#	58826
#	70694
#	81746
#	92060
#	103280
#	114147
#	127101
#	136875
#	149062
#	165745
#	180073
#	194797
#	207949
#	221333
#	233762
#	246402
#	257490
#	273925
#	287767
#	300967
#	314983
#	327202
#
# Disc length: 4555 seconds
#
# Revision: 1
# Processed by: cddbd v1.5.2PL0 Copyright (c) Steve Scherf et al.
# Submitted via: audiograbber 1.83.01
#
DISCID=9411c91b
DTITLE=Charlie Rich - A Rich Anthology 1960-1978
DYEAR=2011
DGENRE=Country
TTITLE0=Lonely Weekends
TTITLE1=Who Will The Next Fool Be?
TTITLE2=Break Up
TTITLE3=Sittin' And Thinkin'
TTITLE4=Big Boss Man
TTITLE5=The Ways Of A Woman In Love
TTITLE6=There Won't Be Anymore
TTITLE7=I Don't See Me In Your Eyes Anymore
TTITLE8=She Called Me Baby
TTITLE9=She Loved Everybody But Me
TTITLE10=River, Stay 'way From My Door
TTITLE11=Mohair Sam
TTITLE12=I Washed My Hands In Muddy Water
TTITLE13=Life's Little Ups And Downs
TTITLE14=Have A Heart
TTITLE15=Woman Left Lonely
TTITLE16=I Take It On Home
TTITLE17=Behind Closed Doors
TTITLE18=The Most Beautiful Girl
TTITLE19=A Very Special Love Song
TTITLE20=I Love My Friend
TTITLE21=My Elusive Dreams
TTITLE22=Every Time You Touch Me (I Get High)
TTITLE23=All Over Me
TTITLE24=Since I Fell For You
TTITLE25=Rollin' With The Flow
TTITLE26=On My Knees (with Janie Fricke)
EXTD=
EXTT0=
EXTT1=
EXTT2=
EXTT3=
EXTT4=
EXTT5=
EXTT6=
EXTT7=
EXTT8=
EXTT9=
EXTT10=
EXTT11=
EXTT12=
EXTT13=
EXTT14=
EXTT15=
EXTT16=
EXTT17=
EXTT18=
EXTT19=
EXTT20=
EXTT21=
EXTT22=
EXTT23=
EXTT24=
EXTT25=
EXTT26=
PLAYORDER=
